{"title":"[AnimeRG] 5 Centimeters Per Second (2007) (10-bit 1080p) [Dual]","uid":12080596,"size":2589939165,"categoryP":"video","categoryS":"hd___movies","magnet":"?xt=urn:btih:126faa82e31ab2c16a9700a09548a48687dee1e8&amp;dn=%5BAnimeRG%5D+5+Centimeters+Per+Second+%282007%29+%2810-bit+1080p%29+%5BDual%5D&amp;tr=udp%3A%2F%2Ftracker.openbittorrent.com%3A80&amp;tr=udp%3A%2F%2Fopen.demonii.com%3A1337&amp;tr=udp%3A%2F%2Ftracker.coppersurfer.tk%3A6969&amp;tr=udp%3A%2F%2Fexodus.desync.com%3A6969","seeders":11,"leechers":1,"uploader":"AnimeRG","files":1,"time":1435710075,"description":"5Centimeters Per Second (2007) BD\n\nDescription\n\nComplete name : [AnimeRG] 5 Centimeters Per Second (2007) (10-bit x264 1080p) [Dual-Audio] [Xcelent].mkv\nFormat : Matroska\nFormat version : Version 4 / Version 2\nFile size : 2.41 GiB\nDuration : 1h 2mn\nOverall bit rate : 5 502 Kbps\nEncoded date : UTC 2015-06-30 01:29:57\nWriting application : mkvmerge v6.7.0 ('Back to the Ground') 32bit built on Jan 8 2014 15:03:17\nWriting library : libebml v1.3.0 + libmatroska v1.4.1\n\nVideo\nID : 1\nFormat : AVC\nFormat/Info : Advanced Video Codec\nFormat profile : High &lt;a class=&quot;__cf_email__&quot; href=&quot;/cdn-cgi/l/email-protection&quot; data-cfemail=&quot;d6e7e6969ae3f8e7&quot;&gt;[email&amp;#160;protected]&lt;/a&gt;&lt;script data-cfhash='f9e31' type=&quot;text/javascript&quot;&gt;\n/* &lt;![CDATA[ */!function(){try{var t=&quot;currentScript&quot;in document?document.currentScript:function(){for(var t=document.getElementsByTagName(&quot;script&quot;),e=t.length;e--;)if(t[e].getAttribute(&quot;data-cfhash&quot;))return t[e]}();if(t&amp;&amp;t.previousSibling){var e,r,n,i,c=t.previousSibling,a=c.getAttribute(&quot;data-cfemail&quot;);if(a){for(e=&quot;&quot;,r=parseInt(a.substr(0,2),16),n=2;a.length-n;n+=2)i=parseInt(a.substr(n,2),16)^r,e+=String.fromCharCode(i);e=document.createTextNode(e),c.parentNode.replaceChild(e,c)}t.parentNode.removeChild(t);}}catch(u){}}()/* ]]&gt; */&lt;/script&gt;\nFormat settings, CABAC : Yes\nFormat settings, ReFrames : 9 frames\nCodec ID : V_MPEG4/ISO/AVC\nDuration : 1h 2mn\nBit rate : 2 129 Kbps\nWidth : 1 920 pixels\nHeight : 1 080 pixels\nDisplay aspect ratio : 16:9\nFrame rate mode : Constant\nFrame rate : 23.976 fps\nColor space : YUV\nChroma subsampling : 4:2:0\nBit depth : 10 bits\nScan type : Progressive\nBits/(Pixel*Frame) : 0.043\nStream size : 956 MiB (39%)\nTitle : Japanese\nWriting library : x264 core 133 r2334 a3ac64b\nEncoding settings : cabac=1 / ref=9 / crf=18.0\nLanguage : Japanese\nDefault : Yes\nForced : No\nColor primaries : BT.709\nTransfer characteristics : BT.709\nMatrix coefficients : BT.709\n\nAudio #1\nID : 2\nFormat : PCM\nCodec ID : 00001000-0000-0100-8000-00AA00389B71\nDuration : 1h 2mn\nBit rate mode : Constant\nBit rate : 3 072 Kbps\nChannel(s) : 4 channels\nChannel positions : Front: L C R, Back: C\nSampling rate : 48.0 KHz\nBit depth : 16 bits\nStream size : 1.35 GiB (56%)\nTitle : Surround 4.0\nLanguage : Japanese\nDefault : Yes\nForced : No\n\nAudio #2\nID : 3\nFormat : AC-3\nFormat/Info : Audio Coding 3\nMode extension : CM (complete main)\nFormat settings, Endianness : Big\nCodec ID : A_AC3\nDuration : 1h 2mn\nBit rate mode : Constant\nBit rate : 192 Kbps\nChannel(s) : 2 channels\nChannel positions : Front: L R\nSampling rate : 48.0 KHz\nBit depth : 16 bits\nCompression mode : Lossy\nStream size : 86.2 MiB (3%)\nTitle : Stereo\nLanguage : English\nDefault : No\nForced : No\n\nText 1\nID : 4\nFormat : PGS\nMuxing mode : zlib\nCodec ID : S_HDMV/PGS\nCodec ID/Info : The same subtitle format used on BDs/HD-DVDs\nLanguage : Japanese\nDefault : No\nForced : No\n\nText 2\nID : 5\nFormat : PGS\nMuxing mode : zlib\nCodec ID : S_HDMV/PGS\nCodec ID/Info : The same subtitle format used on BDs/HD-DVDs\nLanguage : English\nDefault : No\nForced : No\n\nText 3\nID : 6\nFormat : PGS\nMuxing mode : zlib\nCodec ID : S_HDMV/PGS\nCodec ID/Info : The same subtitle format used on BDs/HD-DVDs\nLanguage : Korean\nDefault : No\nForced : No\n\nText 4\nID : 7\nFormat : PGS\nMuxing mode : zlib\nCodec ID : S_HDMV/PGS\nCodec ID/Info : The same subtitle format used on BDs/HD-DVDs\nLanguage : Chinese\nDefault : No\nForced : No\n\nText 5\nID : 8\nFormat : PGS\nMuxing mode : zlib\nCodec ID : S_HDMV/PGS\nCodec ID/Info : The same subtitle format used on BDs/HD-DVDs\nLanguage : Thai\nDefault : No\nForced : No\n\nText 6\nID : 9\nFormat : PGS\nMuxing mode : zlib\nCodec ID : S_HDMV/PGS\nCodec ID/Info : The same subtitle format used on BDs/HD-DVDs\nLanguage : Indonesian\nDefault : No\nForced : No\n\nText 7\nID : 10\nFormat : PGS\nMuxing mode : zlib\nCodec ID : S_HDMV/PGS\nCodec ID/Info : The same subtitle format used on BDs/HD-DVDs\nLanguage : Italian\nDefault : No\nForced : No\n\nText 8\nID : 11\nFormat : PGS\nMuxing mode : zlib\nCodec ID : S_HDMV/PGS\nCodec ID/Info : The same subtitle format used on BDs/HD-DVDs\nLanguage : Spanish\nDefault : No\nForced : No\n\nText 9\nID : 12\nFormat : PGS\nMuxing mode : zlib\nCodec ID : S_HDMV/PGS\nCodec ID/Info : The same subtitle format used on BDs/HD-DVDs\nLanguage : German\nDefault : No\nForced : No\n\nText 10\nID : 13\nFormat : PGS\nMuxing mode : zlib\nCodec ID : S_HDMV/PGS\nCodec ID/Info : The same subtitle format used on BDs/HD-DVDs\nLanguage : Portuguese\nDefault : No\nForced : No\n\nText 11\nID : 14\nFormat : PGS\nMuxing mode : zlib\nCodec ID : S_HDMV/PGS\nCodec ID/Info : The same subtitle format used on BDs/HD-DVDs\nLanguage : Arabic\nDefault : No\nForced : No\n\nMenu\n00:00:00.000 : en:Chapter 01\n00:00:59.059 : en:Chapter 02\n00:05:40.340 : en:Chapter 03\n00:12:56.609 : en:Chapter 04\n00:19:08.147 : en:Chapter 05\n00:25:55.554 : en:Chapter 06\n00:32:48.967 : en:Chapter 07\n00:39:17.355 : en:Chapter 08\n00:43:46.206 : en:Chapter 09\n00:48:31.909 : en:Chapter 10\n00:54:45.657 : en:Chapter 11\n00:59:54.591 : en:Chapter 12\n01:02:43.760 : en:Chapter 13\n\nPlease Seed for others to enjoy too!","torrent":{"xt":"urn:btih:126faa82e31ab2c16a9700a09548a48687dee1e8","amp;dn":"%5BAnimeRG%5D+5+Centimeters+Per+Second+%282007%29+%2810-bit+1080p%29+%5BDual%5D","amp;tr":["udp%3A%2F%2Ftracker.openbittorrent.com%3A80","udp%3A%2F%2Fopen.demonii.com%3A1337","udp%3A%2F%2Ftracker.coppersurfer.tk%3A6969","udp%3A%2F%2Fexodus.desync.com%3A6969"],"infoHash":"126faa82e31ab2c16a9700a09548a48687dee1e8","infoHashBuffer":{"type":"Buffer","data":[18,111,170,130,227,26,178,193,106,151,0,160,149,72,164,134,135,222,225,232]},"announce":[],"urlList":[]}}